<svg xmlns="http://www.w3.org/2000/svg" width="194" height="138" viewBox="0 0 194 138">
    <defs>
        <filter id="a" width="126.7%" height="133.6%" x="-13.3%" y="-16.8%" filterUnits="objectBoundingBox">
            <feOffset in="SourceAlpha" result="shadowOffsetOuter1"/>
            <feGaussianBlur in="shadowOffsetOuter1" result="shadowBlurOuter1" stdDeviation="5"/>
            <feColorMatrix in="shadowBlurOuter1" result="shadowMatrixOuter1" values="0 0 0 0 0.607843137 0 0 0 0 0.576470588 0 0 0 0 0.576470588 0 0 0 0.5 0"/>
            <feMerge>
                <feMergeNode in="shadowMatrixOuter1"/>
                <feMergeNode in="SourceGraphic"/>
            </feMerge>
        </filter>
        <linearGradient id="b" x1="52.262%" x2="-57.539%" y1="47.842%" y2="154.494%">
            <stop offset="0%" stop-color="#6AC28D"/>
            <stop offset="100%" stop-color="#3DC0AB"/>
        </linearGradient>
        <linearGradient id="c" x1="19.285%" x2="86.021%" y1="-21.91%" y2="134.176%">
            <stop offset="0%" stop-color="#6AC28D"/>
            <stop offset="100%" stop-color="#3DC0AB"/>
        </linearGradient>
        <linearGradient id="d" x1="11.794%" x2="80.525%" y1="-49.484%" y2="129.378%">
            <stop offset="0%" stop-color="#6AC28D"/>
            <stop offset="100%" stop-color="#3DC0AB"/>
        </linearGradient>
        <linearGradient id="e" x1="15.855%" x2="131.38%" y1="-29.999%" y2="240.63%">
            <stop offset="0%" stop-color="#6AC28D"/>
            <stop offset="100%" stop-color="#3DC0AB"/>
        </linearGradient>
    </defs>
    <g fill="none" fill-rule="nonzero" transform="translate(0 2)">
        <circle cx="109.5" cy="104.5" r="22.5" stroke="#64C292"/>
        <g filter="url(#a)" transform="translate(22 8)">
            <path fill="url(#b)" d="M69.442 7.3C58.058-4.354 34.754 0 17.411 16.941.067 33.884-4.688 57.054 6.696 68.705c11.384 11.652 34.688 7.3 51.965-9.642C75.937 42.12 80.826 18.95 69.442 7.298z"/>
            <path fill="url(#c)" d="M9.576 89.464c10.178 23.907 37.902 35.023 61.875 24.777 23.973-10.245 35.156-37.902 24.91-61.808C86.184 28.527 58.46 17.411 34.488 27.656 10.513 37.902-.603 65.558 9.576 89.464z"/>
            <path fill="url(#d)" d="M96.027 28.058c-18.348 7.835-25.848 31.54-16.741 52.902 9.107 21.361 31.406 32.344 49.754 24.509 18.348-7.835 25.848-31.54 16.741-52.902-9.107-21.429-31.406-32.344-49.754-24.509z"/>
            <circle cx="84.174" cy="27.79" r="27.254" fill="url(#e)"/>
            <g>
                <path fill="#FFF" d="M59.665 51.228v27.924H44.263c-2.276 0-4.084-1.875-4.084-4.085V58.259a7.03 7.03 0 0 1 7.03-7.031h12.456z"/>
                <path fill="#1FB69B" d="M52.902 53.906V65.76h-8.438a1.63 1.63 0 0 1-1.607-1.607v-5.09a5.116 5.116 0 0 1 5.156-5.156h14.33-9.441z"/>
                <path fill="#1FB69B" d="M95.09 45.2v29.331a4.63 4.63 0 0 1-4.621 4.62H57.723a2.015 2.015 0 0 1-2.009-2.008V47.879a4.63 4.63 0 0 1 4.62-4.62H93.08c1.139 0 2.01.87 2.01 1.942z"/>
                <path fill="#1A6055" d="M95.09 45.2v29.331a4.63 4.63 0 0 1-4.621 4.62H69.308V43.26H93.08c1.139 0 2.01.87 2.01 1.942z"/>
                <path fill="#29343D" d="M62.21 77.143c0 4.219-3.482 7.7-7.701 7.7-4.219 0-7.701-3.481-7.701-7.7s3.482-7.701 7.7-7.701c4.287.067 7.702 3.482 7.702 7.7zM88.393 77.143c0 4.219-3.482 7.7-7.701 7.7-4.219 0-7.7-3.481-7.7-7.7s3.481-7.701 7.7-7.701c4.219.067 7.7 3.482 7.7 7.7z"/>
                <path fill="#FFF" d="M107.812 45.67c0 8.035-6.562 14.598-14.598 14.598-8.035 0-14.598-6.563-14.598-14.598 0-8.036 6.563-14.599 14.598-14.599 8.036 0 14.598 6.496 14.598 14.599z"/>
                <path fill="#227967" d="M107.812 45.67c0 8.035-6.562 14.598-14.598 14.598V31.004c8.036 0 14.598 6.563 14.598 14.666z"/>
                <path fill="#1FB69B" d="M56.518 77.143v.402c0 .067 0 .134-.067.2 0 .067-.067.134-.067.201s-.067.134-.067.201-.067.134-.067.134-.067.134-.134.134l-.134.134c-.402.402-.87.603-1.406.603-.536 0-1.005-.201-1.406-.603l-.134-.134c-.067-.067-.067-.134-.134-.134-.067-.067-.067-.134-.067-.134 0-.067-.067-.134-.067-.2 0-.068-.067-.135-.067-.201 0-.067-.067-.134-.067-.201v-.201-.201-.201-.2c0-.068 0-.135.067-.202 0-.067.067-.134.067-.2 0-.068.067-.135.067-.202s.067-.134.067-.134c.067-.067.067-.133.134-.133l.134-.134.134-.134c.067-.067.133-.067.133-.134s.134-.067.134-.067c.067 0 .134-.067.201-.067s.134-.067.201-.067.134-.067.201-.067H54.977c.068 0 .135 0 .202.067.067 0 .133.067.2.067s.134.067.201.067.134.067.134.067c.067.067.134.067.134.134l.134.134.134.134c.067.066.067.133.134.133.067.067.067.134.067.134s.067.134.067.201.067.134.067.201.067.134.067.201v.401z"/>
                <path fill="#60C09D" d="M82.7 77.143v.402c0 .067 0 .134-.066.2 0 .067-.067.134-.067.201s-.067.134-.067.201-.067.134-.067.134-.067.134-.134.134l-.134.134-.134.134c-.067.067-.134.067-.134.134-.067.067-.134.067-.134.067-.067 0-.134.067-.2.067-.067 0-.134.067-.201.067s-.134.067-.201.067H80.358c-.068 0-.135 0-.202-.067-.067 0-.134-.067-.2-.067-.068 0-.135-.067-.202-.067s-.133-.067-.133-.067-.134-.067-.134-.134l-.134-.134-.134-.134c-.067-.067-.067-.134-.134-.134-.067-.067-.067-.134-.067-.134 0-.067-.067-.134-.067-.2 0-.068-.067-.135-.067-.201 0-.067-.067-.134-.067-.201v-.201-.201-.201-.2c0-.068 0-.135.067-.202 0-.067.067-.134.067-.2 0-.068.067-.135.067-.202s.067-.134.067-.134c.067-.067.067-.133.134-.133l.134-.134.134-.134c.067-.067.134-.067.134-.134s.133-.067.133-.067c.067 0 .134-.067.201-.067s.134-.067.201-.067.134-.067.201-.067H81.16c.068 0 .135 0 .202.067.067 0 .134.067.2.067.067 0 .134.067.201.067s.134.067.134.067c.067.067.134.067.134.134l.134.134.134.134c.067.066.067.133.134.133.067.067.067.134.067.134s.067.134.067.201.067.134.067.201.067.134.067.201v.401z"/>
                <g fill="#60C09D">
                    <path d="M95.156 45.469v5.692c0 1.071-.87 2.009-2.009 2.009-1.138 0-2.009-.87-2.009-2.01V45.47c0-1.072.87-2.01 2.01-2.01 1.138 0 2.008.938 2.008 2.01zM95.156 40.112v.401c0 .067 0 .134-.067.201 0 .067-.067.134-.067.201s-.067.134-.067.201-.067.134-.067.201c-.067.067-.067.134-.134.134l-.133.134-.134.134c-.067.067-.134.067-.134.134-.067.067-.134.067-.201.067s-.134.067-.201.067-.134.067-.201.067-.134.067-.2.067h-.804c-.067 0-.134 0-.201-.067-.067 0-.134-.067-.201-.067s-.134-.067-.201-.067-.134-.067-.134-.067c-.067-.067-.134-.067-.134-.134l-.134-.134-.134-.134c-.067-.067-.067-.134-.134-.134-.067-.067-.067-.134-.067-.2 0-.068-.067-.135-.067-.202s-.067-.134-.067-.2c0-.068-.067-.135-.067-.202v-.2-.201-.201-.201c0-.067 0-.134.067-.201 0-.067.067-.134.067-.201s.067-.134.067-.2c0-.068.067-.135.067-.202.067-.067.067-.134.134-.134l.134-.134.134-.134c.067-.067.134-.067.134-.133.067-.067.134-.067.134-.067.067 0 .134-.067.2-.067.068 0 .135-.067.202-.067s.134-.067.2-.067h.804c.067 0 .134 0 .201.067.067 0 .134.067.2.067.068 0 .135.067.202.067s.134.067.2.067c.068.066.135.066.135.133l.134.134.133.134c.067.067.067.134.134.134.067.067.067.134.067.201s.067.134.067.201.067.134.067.2c0 .068.067.135.067.202v.402z"/>
                </g>
                <g fill="#1A6055">
                    <path d="M93.348 42.054h-.2v-3.951h.401c.067 0 .134 0 .201.067.067 0 .134.067.2.067.068 0 .135.067.202.067s.134.067.2.067c.068.066.135.066.135.133l.134.134.133.134c.067.067.067.134.134.134.067.067.067.134.067.201s.067.134.067.201.067.134.067.2c0 .068.067.135.067.202V40.513c0 .067 0 .134-.067.201 0 .067-.067.134-.067.201s-.067.134-.067.201-.067.134-.067.201c-.067.067-.067.134-.134.134l-.133.134-.134.134c-.067.067-.134.067-.134.134-.067.067-.134.067-.201.067s-.134.067-.201.067-.134.067-.201.067-.134.067-.2.067c-.068-.067-.135-.067-.202-.067zM95.156 45.469v5.692c0 1.071-.87 2.009-2.009 2.009v-9.643c1.139 0 2.01.87 2.01 1.942z"/>
                </g>
            </g>
        </g>
        <circle cx="1.5" cy="78.5" r="1.5" fill="#227967"/>
        <circle cx="191.5" cy="65.5" r="2.5" fill="#60C09D"/>
        <circle cx="28" cy="5" r="5" fill="#227967"/>
        <circle cx="43.5" cy="43.5" r="3.5" fill="#227967"/>
        <circle cx="167.5" cy="35.5" r="7.5" stroke="#64C292"/>
    </g>
</svg>
