<svg xmlns="http://www.w3.org/2000/svg" width="171" height="140" viewBox="0 0 171 140">
    <defs>
        <filter id="a" width="127%" height="133.2%" x="-13.5%" y="-16.6%" filterUnits="objectBoundingBox">
            <feOffset in="SourceAlpha" result="shadowOffsetOuter1"/>
            <feGaussianBlur in="shadowOffsetOuter1" result="shadowBlurOuter1" stdDeviation="5"/>
            <feColorMatrix in="shadowBlurOuter1" result="shadowMatrixOuter1" values="0 0 0 0 0.607843137 0 0 0 0 0.576470588 0 0 0 0 0.576470588 0 0 0 0.5 0"/>
            <feMerge>
                <feMergeNode in="shadowMatrixOuter1"/>
                <feMergeNode in="SourceGraphic"/>
            </feMerge>
        </filter>
        <linearGradient id="b" x1="-186.521%" x2="140.742%" y1="92.543%" y2="33.753%">
            <stop offset="0%" stop-color="#6AC28D"/>
            <stop offset="100%" stop-color="#3DC0AB"/>
        </linearGradient>
        <linearGradient id="c" x1="-50.157%" x2="371.205%" y1="67.951%" y2="-7.743%">
            <stop offset="0%" stop-color="#6AC28D"/>
            <stop offset="100%" stop-color="#3DC0AB"/>
        </linearGradient>
        <linearGradient id="d" x1="-103.809%" x2="317.552%" y1="77.587%" y2="1.893%">
            <stop offset="0%" stop-color="#6AC28D"/>
            <stop offset="100%" stop-color="#3DC0AB"/>
        </linearGradient>
        <linearGradient id="e" x1="-71.712%" x2="177.024%" y1="68.835%" y2="30.368%">
            <stop offset="0%" stop-color="#6AC28D"/>
            <stop offset="100%" stop-color="#3DC0AB"/>
        </linearGradient>
        <linearGradient id="f" x1="-68.712%" x2="243.731%" y1="71.305%" y2="15.177%">
            <stop offset="0%" stop-color="#6AC28D"/>
            <stop offset="100%" stop-color="#3DC0AB"/>
        </linearGradient>
    </defs>
    <g fill="none" fill-rule="nonzero">
        <g transform="translate(13.487 10)">
            <g filter="url(#a)">
                <ellipse cx="113.584" cy="60.771" fill="url(#b)" rx="33.337" ry="34.707"/>
                <ellipse cx="26.222" cy="58.782" fill="url(#c)" rx="25.892" ry="26.956"/>
                <ellipse cx="39.53" cy="26.956" fill="url(#d)" rx="25.892" ry="26.956"/>
                <ellipse cx="77.941" cy="46.916" fill="url(#e)" rx="47.832" ry="42.869"/>
                <ellipse cx="61.074" cy="83.543" fill="url(#f)" rx="34.918" ry="36.353"/>
            </g>
            <ellipse cx="71.023" cy="58.164" fill="#FFF" rx="25.036" ry="26.064"/>
            <path fill="#1FB69B" d="M57.648 57.753s9.29-9.671 9.29-17.696c0-5.35-4.15-9.672-9.29-9.672-5.139 0-9.29 4.322-9.29 9.672 0 8.505 9.29 17.696 9.29 17.696zm-4.81-17.696c0-2.813 2.175-5.076 4.876-5.076 2.701 0 4.876 2.263 4.876 5.076 0 2.812-2.175 5.075-4.876 5.075-2.701-.068-4.875-2.332-4.875-5.075z"/>
            <path fill="#227967" d="M57.648 57.753s9.29-9.671 9.29-17.696c0-5.35-4.15-9.672-9.29-9.672v4.39c2.702.069 4.876 2.332 4.942 5.007.065 2.812-2.175 5.282-4.942 5.282v12.689zM92.04 43.486l-.725.274-4.019.343-1.12 1.92-.857-.273-3.228-3.018-.461-1.578-.593-1.646-2.042-1.92-2.372-.48-.066 1.165 2.306 2.4 1.12 1.373-1.318.686-1.054-.343-1.581-.686.066-1.303-2.043-.892-.658 3.086-2.043.48.198 1.715 2.701.549.461-2.744 2.24.343 1.054.618h1.647l1.12 2.4 3.031 3.155-.197 1.235-2.438-.343-4.217 2.195-3.03 3.772-.396 1.647h-1.12l-2.042-.96-1.977.96.462 2.194.856-1.028 1.515-.069-.131 1.92 1.251.343 1.252 1.44 2.043-.616 2.306.411 2.7.755 1.318.137 2.306 2.675 4.415 2.675-2.833 5.693-3.031 1.44-1.12 3.224-4.348 3.018-.462 1.715c11.135-2.813 19.37-13.17 19.37-25.653.066-5.213-1.515-10.22-4.216-14.404z"/>
            <path fill="#1A6055" d="M73.922 71.95l-1.845-3.566 1.713-3.704-1.713-.548-1.91-1.99-4.217-.96-1.384-3.018v1.784h-.659l-2.635-3.773c-1.318 1.646-2.306 2.675-2.438 2.812l-1.12 1.166-1.186-1.166c-.33-.274-5.666-5.693-8.367-12.209a27.086 27.086 0 0 0-2.504 11.386c0 14.61 11.332 26.407 25.366 26.407 1.054 0 2.108-.068 3.162-.205l-.263-3.224s1.186-4.733 1.186-4.939c0-.137-1.186-4.252-1.186-4.252z"/>
            <path fill="#227967" d="M68.98 36.833l1.845.343 4.546-.412 1.252-1.44 1.779-1.235 2.503.412.923-.137c-3.295-1.578-6.918-2.538-10.805-2.538a22.62 22.62 0 0 0-5.271.617c1.318 1.509 2.24 3.361 2.701 5.419l.527-1.03zm3.097-2.47l2.57-1.508 1.646 1.028-2.437 1.921-2.306.274-1.054-.686 1.58-1.028z"/>
        </g>
        <g transform="translate(1 12.04)">
            <ellipse cx="7.346" cy="71.889" stroke="#64C292" rx="7.346" ry="7.648"/>
            <ellipse cx="63.176" cy="12.746" stroke="#64C292" rx="7.346" ry="7.648"/>
            <ellipse cx="23.507" cy="20.394" fill="#227967" rx="4.897" ry="5.099"/>
            <ellipse cx="163.082" cy="2.549" fill="#60C09D" rx="2.449" ry="2.549"/>
            <ellipse cx="158.185" cy="48.436" fill="#227967" rx="2.449" ry="2.549"/>
            <ellipse cx="79.827" cy="20.904" fill="#227967" rx="1.469" ry="1.53"/>
            <ellipse cx="87.663" cy="99.421" fill="#227967" rx="1.469" ry="1.53"/>
        </g>
    </g>
</svg>
