<svg xmlns="http://www.w3.org/2000/svg" xmlns:xlink="http://www.w3.org/1999/xlink" width="171" height="141" viewBox="0 0 171 141">
    <defs>
        <linearGradient id="c" x1=".511%" x2="100.298%" y1="50.005%" y2="50.005%">
            <stop offset="0%" stop-color="#6AC28D"/>
            <stop offset="100%" stop-color="#3DC0AB"/>
        </linearGradient>
        <path id="b" d="M138.834 49.843c2.825-2.287 4.91-5.045 5.987-8.273 4.775-13.992-10.426-30.942-33.969-37.938-21.525-6.323-42.511-2.22-49.709 9.148-10.56-.269-22.735 2.893-34.035 9.62C4.64 35.716-5.717 57.847 3.9 71.838c5.18 7.533 15.202 11.165 26.772 10.83-.538 2.084-.875 4.304-.875 6.591 0 15.336 13.386 27.78 29.933 27.78 9.753 0 18.498-4.372 23.946-11.098 6.996 5.112 15.74 8.139 25.292 8.139 22.6 0 40.964-17.085 40.964-38.14.067-10.089-4.17-19.304-11.099-26.098z"/>
        <filter id="a" width="120.1%" height="125.8%" y="-12.9%" filterUnits="objectBoundingBox">
            <feOffset in="SourceAlpha" result="shadowOffsetOuter1"/>
            <feGaussianBlur in="shadowOffsetOuter1" result="shadowBlurOuter1" stdDeviation="5"/>
            <feColorMatrix in="shadowBlurOuter1" values="0 0 0 0 0.607843137 0 0 0 0 0.576470588 0 0 0 0 0.576470588 0 0 0 0.5 0"/>
        </filter>
    </defs>
    <g fill="none" fill-rule="nonzero">
        <g transform="translate(12 14)">
            <use fill="#000" filter="url(#a)" xlink:href="#b"/>
            <use fill="url(#c)" xlink:href="#b"/>
        </g>
        <path fill="#227967" d="M123.794 76.758l-4.305-.538c-.471-1.682-1.076-3.229-1.95-4.642l2.69-3.43c.403-.538.336-1.345-.135-1.816l-4.44-4.44c-.47-.47-1.277-.538-1.815-.134l-3.43 2.69a21.833 21.833 0 0 0-4.642-1.95l-.538-4.305c-.068-.673-.673-1.21-1.346-1.21h-6.322c-.673 0-1.278.537-1.346 1.21l-.538 4.305c-1.614.47-3.229 1.076-4.641 1.95l-3.43-2.69c-.539-.404-1.346-.336-1.817.134l-4.44 4.44c-.47.47-.537 1.278-.134 1.816l2.69 3.43a21.833 21.833 0 0 0-1.95 4.642l-4.305.538c-.672.067-1.21.672-1.21 1.345v6.323c0 .673.538 1.278 1.21 1.345l4.305.538c.471 1.615 1.076 3.23 1.95 4.642l-2.69 3.43c-.403.538-.336 1.345.135 1.816l4.44 4.44c.47.47 1.277.538 1.815.134l3.43-2.69a21.833 21.833 0 0 0 4.642 1.95l.538 4.305c.068.673.673 1.211 1.346 1.211h6.322c.673 0 1.278-.538 1.346-1.21l.538-4.306c1.681-.47 3.229-1.076 4.641-1.95l3.43 2.69c.539.404 1.346.337 1.817-.134l4.44-4.44c.47-.47.537-1.278.134-1.816l-2.69-3.43a21.833 21.833 0 0 0 1.95-4.642l4.305-.538c.672-.067 1.21-.672 1.21-1.345v-6.323c0-.673-.538-1.278-1.21-1.345zm-23.005 16.614c-6.659 0-12.107-5.448-12.107-12.107 0-6.66 5.448-12.108 12.107-12.108 6.66 0 12.108 5.448 12.108 12.108 0 6.659-5.449 12.107-12.108 12.107z"/>
        <path fill="#FFF" d="M123.794 76.758l-4.305-.538c-.471-1.682-1.076-3.229-1.95-4.642l2.69-3.43c.403-.538.336-1.345-.135-1.816l-4.44-4.44c-.47-.47-1.277-.538-1.815-.134l-3.43 2.69a21.833 21.833 0 0 0-4.642-1.95l-.538-4.305c-.068-.673-.673-1.21-1.346-1.21h-3.094V69.09c6.592.067 12.04 5.515 12.04 12.107 0 6.66-5.448 12.108-12.107 12.108v12.108h3.161c.673 0 1.278-.539 1.346-1.211l.538-4.305c1.681-.471 3.229-1.076 4.641-1.95l3.43 2.69c.539.403 1.346.336 1.817-.135l4.44-4.44c.47-.47.537-1.277.134-1.815l-2.69-3.43a21.833 21.833 0 0 0 1.95-4.642l4.305-.538c.672-.067 1.21-.673 1.21-1.346V77.97c0-.539-.538-1.144-1.21-1.211z"/>
        <g>
            <path fill="#1A6055" d="M82.897 84.224v3.296a4.966 4.966 0 0 1-4.978 4.978 4.966 4.966 0 0 1-4.977-4.978v-3.296c0-.941.74-1.681 1.681-1.681h6.592c.942 0 1.682.74 1.682 1.681z"/>
            <path fill="#29343D" d="M82.897 84.224v3.296a4.966 4.966 0 0 1-4.978 4.978v-9.955h3.296c.942 0 1.682.74 1.682 1.681z"/>
            <path fill="#FFF" d="M77.92 42.857c-10.427 0-18.23 8.408-18.23 18.228 0 5.92 2.826 11.435 7.736 14.866 1.345.941 2.152 2.623 2.152 4.506v.404a4.966 4.966 0 0 0 4.978 4.978h6.592a4.966 4.966 0 0 0 4.978-4.978v-.538c0-1.816.941-3.498 2.623-4.776 4.641-3.498 7.332-8.744 7.332-14.596.067-9.888-8.005-18.094-18.162-18.094z"/>
            <path fill="#1FB69B" d="M96.148 61.018c0 5.785-2.69 11.099-7.332 14.596-1.681 1.278-2.623 2.96-2.623 4.776v.538a4.966 4.966 0 0 1-4.978 4.978H77.92v-43.05c10.157 0 18.229 8.207 18.229 18.162z"/>
            <path fill="#FFF" d="M104.489 62.7h-3.43c-.942 0-1.682-.74-1.682-1.682s.74-1.682 1.681-1.682h3.43c.942 0 1.682.74 1.682 1.682s-.74 1.682-1.681 1.682zM54.713 62.7h-3.43c-.942 0-1.682-.74-1.682-1.682s.74-1.682 1.682-1.682h3.43c.942 0 1.682.74 1.682 1.682s-.74 1.682-1.682 1.682zM93.121 45.816c-.673-.673-.673-1.681 0-2.354l2.354-2.354c.673-.673 1.682-.673 2.355 0 .672.672.672 1.681 0 2.354l-2.355 2.354c-.672.673-1.681.673-2.354 0zM58.009 80.928c-.673-.672-.673-1.681 0-2.354l2.354-2.354c.673-.673 1.682-.673 2.354 0 .673.672.673 1.681 0 2.354l-2.354 2.354c-.672.673-1.681.673-2.354 0zM60.363 45.816l-2.354-2.354c-.673-.673-.673-1.682 0-2.354.673-.673 1.682-.673 2.354 0l2.354 2.354c.673.673.673 1.681 0 2.354-.672.673-1.681.673-2.354 0zM95.475 80.928l-2.354-2.354c-.673-.673-.673-1.682 0-2.354.673-.673 1.682-.673 2.354 0l2.355 2.354c.672.673.672 1.682 0 2.354-.673.673-1.682.673-2.355 0z"/>
            <path fill="#1FB69B" d="M87.135 62.969l-8.745-5.785 2.69-5.314c.337-.74.135-1.614-.537-2.085-.673-.471-1.547-.404-2.086.202l-9.955 9.887a1.596 1.596 0 0 0-.47 1.346c.067.47.336.941.74 1.21l8.744 5.785-2.69 5.314c-.337.74-.135 1.614.537 2.085.673.471 1.547.404 2.085-.201l9.888-9.888c.337-.337.538-.808.471-1.346 0-.47-.269-.941-.672-1.21z"/>
            <path fill="#227967" d="M87.874 64.18c0 .47-.134 1.008-.47 1.345l-9.417 9.417V50.457l.47-.47c.539-.606 1.48-.673 2.086-.202.672.47.874 1.345.538 2.085l-2.69 5.314 8.744 5.785c.403.269.672.74.74 1.21z"/>
        </g>
        <g transform="translate(1 1)">
            <circle cx="7.5" cy="107.5" r="7.5" stroke="#64C292"/>
            <circle cx="47.5" cy="105.5" r="1.5" fill="#227967"/>
            <circle cx="164.5" cy="14.5" r="2.5" fill="#60C09D"/>
            <circle cx="160" cy="95" r="5" fill="#227967"/>
            <circle cx="80.5" cy="7.5" r="7.5" stroke="#64C292"/>
        </g>
    </g>
</svg>
