<svg xmlns="http://www.w3.org/2000/svg" width="158" height="136" viewBox="0 0 158 136">
    <defs>
        <linearGradient id="a" x1="52.263%" x2="-57.538%" y1="47.838%" y2="154.49%">
            <stop offset="0%" stop-color="#6AC28D"/>
            <stop offset="100%" stop-color="#3DC0AB"/>
        </linearGradient>
        <linearGradient id="b" x1="19.285%" x2="86.021%" y1="-21.912%" y2="134.174%">
            <stop offset="0%" stop-color="#6AC28D"/>
            <stop offset="100%" stop-color="#3DC0AB"/>
        </linearGradient>
        <linearGradient id="c" x1="86.022%" x2="21.147%" y1="-50.201%" y2="129.955%">
            <stop offset="0%" stop-color="#6AC28D"/>
            <stop offset="100%" stop-color="#3DC0AB"/>
        </linearGradient>
        <linearGradient id="d" x1="15.855%" x2="131.38%" y1="-30.003%" y2="240.626%">
            <stop offset="0%" stop-color="#6AC28D"/>
            <stop offset="100%" stop-color="#3DC0AB"/>
        </linearGradient>
    </defs>
    <g fill="none" fill-rule="nonzero">
        <g transform="translate(8 5)">
            <path fill="url(#a)" d="M69.442 23.37c-11.384-11.651-34.688-7.299-52.031 9.643C.067 49.955-4.688 73.125 6.696 84.777c11.384 11.652 34.688 7.299 51.965-9.643C75.937 58.192 80.826 35.022 69.442 23.37z"/>
            <path fill="url(#b)" d="M18.281 89.464c10.179 23.907 37.902 35.023 61.875 24.777 23.973-10.245 35.156-37.902 24.911-61.808-10.179-23.906-37.902-35.022-61.875-24.777-23.973 10.246-35.09 37.902-24.91 61.808z"/>
            <path fill="url(#c)" d="M128.237 27.723c-18.55-7.433-40.58 4.018-49.22 25.58-8.638 21.563-.669 45.068 17.88 52.5 18.55 7.434 40.58-4.017 49.22-25.58 8.637-21.562.669-45.067-17.88-52.5z"/>
            <circle cx="84.174" cy="27.79" r="27.254" fill="url(#d)"/>
        </g>
        <path fill="#FFF" d="M108.446 64.598c0 14.8-11.986 26.786-26.785 26.786-14.8 0-26.786-11.987-26.786-26.786 0-14.799 11.987-26.786 26.786-26.786 14.799 0 26.785 11.987 26.785 26.786z"/>
        <path fill="#227967" d="M89.696 54.688l-5.022-5.023-7.232 7.232-5.156-5.156-7.165 7.165 5.156 5.157-7.366 7.366 19.955 19.955c14.196-.67 25.58-12.388 25.58-26.786v-1.071L94.652 49.732l-4.956 4.956z"/>
        <path fill="#1FB69B" d="M81.326 74.509h10.38v7.5H81.258v-7.5z"/>
        <path fill="#1A6055" d="M86.55 74.509h5.222v7.5H86.55z"/>
        <path fill="#DEECF1" d="M76.906 58.906H65.121l-.268-.67c-.134-.468-.268-.937-.268-1.406 0-2.276 1.875-4.151 4.152-4.151.334 0 .67.067.937.133.938-1.339 2.545-2.21 4.219-2.21 1.54 0 3.013.67 4.018 1.876l.335.401-1.34 6.027zM75.969 71.429H62.91l-.268-.67c-.134-.469-.268-.938-.268-1.406 0-2.277 1.875-4.152 4.152-4.152.335 0 .67.067.937.134.938-1.34 2.545-2.21 4.219-2.21a5.23 5.23 0 0 1 5.223 5.223c0 .938-.268 1.808-.67 2.612l-.267.469z"/>
        <path fill="#537983" d="M82.866 70.09l-1.808 1.272c.2.937.268 2.076.268 2.076l.335.2 1.74.804v-.402c0-1.205-.2-2.611-.535-3.95z"/>
        <path fill="#1A6055" d="M90.232 70.022a13.264 13.264 0 0 0-.603 4.018v.469l2.076-1.071s0-.938.268-2.076l-1.74-1.34z"/>
        <path fill="#1FB69B" d="M93.714 48.929c-2.076-1.675-4.553-2.545-7.232-2.545-.803 0-1.674.067-2.478.268-4.486.937-8.035 4.62-8.772 9.174-.67 3.683.469 7.299 3.014 9.91 1.272 1.34 2.142 3.014 2.678 4.889l.201.804h10.982l.201-.737c.536-1.875 1.54-3.683 3.013-5.424A11.461 11.461 0 0 0 98 57.902c0-3.55-1.54-6.764-4.286-8.973z"/>
        <path fill="#1FB69B" d="M98 57.835c0 2.678-.938 5.29-2.679 7.366-1.473 1.741-2.477 3.549-3.013 5.424l-.2.737h-5.492V46.384c2.612 0 5.156.87 7.232 2.545C96.46 51.139 98 54.353 98 57.835z"/>
        <path fill="#FFF" d="M86.55 46.384c-.537 0-1.072.134-1.541.335-2.41 1.071-4.219 4.62-4.62 9.24-.335 3.483.2 6.965 1.473 9.577.602 1.339 1.071 3.08 1.406 5.022l.134.87h6.495l.134-.87a22.33 22.33 0 0 1 1.54-5.491c.871-2.009 1.34-4.487 1.34-7.098-.134-6.563-2.88-11.585-6.362-11.585z"/>
        <path fill="#227967" d="M92.777 57.835c0 2.678-.469 5.09-1.34 7.098a22.33 22.33 0 0 0-1.54 5.491l-.134.87h-3.28v-24.91c3.548 0 6.294 5.022 6.294 11.45z"/>
        <path fill="#1FB69B" d="M79.25 73.504h14.598v2.076H79.25z"/>
        <path fill="#1FB69B" d="M86.55 73.504h7.298v2.076H86.55z"/>
        <g transform="translate(1)">
            <circle cx="128.5" cy="127.5" r="7.5" stroke="#64C292"/>
            <circle cx="7.5" cy="48.5" r="7.5" stroke="#64C292"/>
            <circle cx="144" cy="27" r="5" fill="#227967"/>
            <circle cx="123.5" cy="2.5" r="2.5" fill="#60C09D"/>
            <circle cx="23.5" cy="107.5" r="2.5" fill="#60C09D"/>
            <circle cx="44.5" cy="47.5" r="1.5" fill="#227967"/>
            <circle cx="154.5" cy="68.5" r="1.5" fill="#227967"/>
        </g>
    </g>
</svg>
