<?xml version="1.0" encoding="utf-8"?>
<!-- Generator: Adobe Illustrator 21.0.0, SVG Export Plug-In . SVG Version: 6.00 Build 0)  -->
<svg version="1.1" id="Layer_1" xmlns="http://www.w3.org/2000/svg" xmlns:xlink="http://www.w3.org/1999/xlink" x="0px" y="0px"
	 viewBox="0 0 48 43" style="enable-background:new 0 0 48 43;" xml:space="preserve">
<style type="text/css">
	.st0{fill:#40A046;}
</style>
<g id="Page-1">
	<g id="о-нас-copy" transform="translate(-660.000000, -963.000000)">
		<g id="наше-видение" transform="translate(0.000000, 23.000000)">
			<g id="преимущества-" transform="translate(20.000000, 759.000000)">
				<g id="_x32_" transform="translate(452.000000, 162.000000)">
					<g id="Group" transform="translate(171.000000, 0.000000)">
						<g id="_x32_4-hours-delivery" transform="translate(17.000000, 19.000000)">
							<path id="Shape" class="st0" d="M14.8,28c0-4.2,5.5-4.9,5.5-7.2c0-1-0.8-1.6-1.8-1.6c-1.4,0-2.1,1.4-2.1,1.4l-1.6-1.1
								c0,0,1.1-2.3,3.9-2.3c2.1,0,3.8,1.3,3.8,3.5c0,3.8-5.2,4.4-5.3,6.6h5.5V29h-7.8C14.9,28.6,14.8,28.3,14.8,28z M23.9,24.7
								l5-7.4h2.5v6.9H33V26h-1.5v3h-2.1v-3h-5.5V24.7z M29.4,24.2v-3.6c0-0.6,0.1-1.2,0.1-1.2h0c0,0-0.3,0.6-0.6,1.1l-2.7,3.8v0
								H29.4z M39.7,23.6l-0.4,1.5C37,33.4,28.5,38.6,20.1,36.6c-8-2-13-9.8-11.8-17.8l2.4,0.7c0.6,0.2,1.1-0.4,0.9-0.9L9.1,8.3
								C8.9,7.7,8.2,7.5,7.8,7.9l-7.6,7.4c-0.4,0.4-0.2,1.1,0.3,1.3l2.6,0.7c-2,10.8,4.7,21.5,15.4,24.3c11.2,2.9,22.6-4,25.8-15.2
								l0.4-1.4c0.1-0.4-0.1-0.8-0.5-0.9l-3.6-1C40.2,23,39.8,23.2,39.7,23.6z M44,17.2l-3.8,0.5c-0.4,0.1-0.7,0.4-0.7,0.8l0.2,1.2
								c0.1,0.4,0.4,0.7,0.8,0.7l3.8-0.5c0.4-0.1,0.7-0.4,0.7-0.8l-0.2-1.2C44.8,17.4,44.4,17.1,44,17.2z M41.1,10l-3.4,1.9
								c-0.4,0.2-0.5,0.7-0.3,1l0.6,1c0.2,0.4,0.7,0.5,1,0.3l3.4-1.9c0.4-0.2,0.5-0.7,0.3-1l-0.6-1C41.9,9.9,41.4,9.8,41.1,10z
								 M35.6,4.3l-2.4,3C33,7.7,33,8.2,33.3,8.4l0.9,0.7c0.3,0.3,0.8,0.2,1.1-0.1l2.4-3C38,5.7,37.9,5.2,37.6,5l-0.9-0.7
								C36.4,4,35.9,4,35.6,4.3z M28.5,1.2l-1.1,3.7c-0.1,0.4,0.1,0.8,0.5,0.9L29,6.2c0.4,0.1,0.8-0.1,0.9-0.5L31.1,2
								C31.2,1.6,31,1.1,30.6,1l-1.1-0.3C29,0.6,28.6,0.8,28.5,1.2z M20.7,0.9l0.4,3.8c0,0.4,0.4,0.7,0.8,0.7L23,5.4
								c0.4,0,0.7-0.4,0.7-0.8l-0.4-3.8C23.3,0.3,23,0,22.5,0l-1.2,0.1C21,0.2,20.7,0.5,20.7,0.9z M13.4,3.6l1.8,3.4
								c0.2,0.4,0.6,0.5,1,0.3l1-0.5c0.4-0.2,0.5-0.7,0.3-1l-1.8-3.4c-0.2-0.4-0.6-0.5-1-0.3l-1,0.5C13.3,2.8,13.2,3.3,13.4,3.6z"/>
						</g>
					</g>
				</g>
			</g>
		</g>
	</g>
</g>
</svg>
