<svg xmlns="http://www.w3.org/2000/svg" width="25" height="20" viewBox="0 0 25 20">
    <path fill="#40A046" fill-rule="nonzero" d="M24.548 2.648L22.355.452A1.492 1.492 0 0 0 21.258 0c-.43 0-.796.15-1.097.452l-10.58 10.61-4.742-4.764a1.492 1.492 0 0 0-1.097-.452c-.43 0-.796.15-1.097.452L.452 8.495A1.496 1.496 0 0 0 0 9.593c0 .43.15.797.452 1.098l5.838 5.846 2.194 2.197c.3.301.667.452 1.097.452.43 0 .795-.15 1.096-.452l2.194-2.197L24.548 4.845c.301-.301.452-.668.452-1.098 0-.43-.15-.797-.452-1.099z"/>
</svg>
