<?xml version="1.0" encoding="UTF-8"?>
<svg width="15px" height="29px" viewBox="0 0 15 29" version="1.1" xmlns="http://www.w3.org/2000/svg" xmlns:xlink="http://www.w3.org/1999/xlink">
    <!-- Generator: Sketch 51.3 (57544) - http://www.bohemiancoding.com/sketch -->
    <title>Shape</title>
    <desc>Created with Sketch.</desc>
    <defs></defs>
    <g id="Page-1" stroke="none" stroke-width="1" fill="none" fill-rule="evenodd">
        <g id="о-нас-copy" transform="translate(-224.000000, -970.000000)" fill="#40A046" fill-rule="nonzero">
            <g id="наше-видение" transform="translate(0.000000, 23.000000)">
                <g id="преимущества-" transform="translate(20.000000, 696.000000)">
                    <g id="1">
                        <g id="Group-Copy" transform="translate(171.000000, 0.000000)">
                            <path d="M47.7892401,268.538459 C47.6501036,268.067332 47.4812929,267.657299 47.2830333,267.309092 C47.0848863,266.960547 46.8010952,266.62056 46.4310969,266.288007 C46.0615491,265.955622 45.7291081,265.687935 45.434337,265.484439 C45.1397348,265.280774 44.735051,265.053065 44.2205107,264.801031 C43.7064208,264.549054 43.2990905,264.361549 42.9992517,264.238235 C42.6990187,264.11509 42.264717,263.94628 41.696628,263.731916 C41.1929551,263.539118 40.8179455,263.391705 40.5712049,263.289956 C40.3247458,263.188096 40.0006384,263.043497 39.5987136,262.855824 C39.1969577,262.668431 38.8968374,262.502211 38.6985215,262.357613 C38.5002619,262.213014 38.2886573,262.036208 38.0635389,261.82725 C37.8384205,261.618292 37.6803646,261.395876 37.5892023,261.160116 C37.4982653,260.924299 37.452656,260.667028 37.452656,260.388361 C37.452656,259.659739 37.7740607,259.064735 38.4170953,258.604025 C39.0601862,258.143315 39.8908946,257.912847 40.9091077,257.912847 C41.3590067,257.912847 41.8176897,257.974392 42.2835801,258.097762 C42.7494705,258.221132 43.1487488,258.3601 43.4810209,258.515622 C43.8135745,258.671144 44.1269272,258.842657 44.4217546,259.030106 C44.7165257,259.217723 44.9254275,259.359619 45.0487978,259.456074 C45.1720555,259.552585 45.2501543,259.616832 45.2819682,259.649041 C45.4214988,259.756194 45.5658156,259.793639 45.7158758,259.7616 C45.8765781,259.750901 45.9999484,259.665032 46.0858741,259.504442 L47.3882725,257.15731 C47.5168231,256.943059 47.4902459,256.739393 47.3079213,256.54637 C47.2435053,256.482067 47.1634356,256.407121 47.0663048,256.321308 C46.9701311,256.235495 46.7610604,256.080142 46.4392616,255.854968 C46.1178006,255.629962 45.7775328,255.428999 45.4187398,255.252137 C45.0595526,255.075443 44.5932117,254.895821 44.0197735,254.713722 C43.4466732,254.531341 42.8543719,254.408196 42.2433201,254.343949 L42.2433201,251.514428 C42.2433201,251.36448 42.1951769,251.241166 42.0990033,251.144655 C42.0026044,251.048368 41.8792904,251 41.729005,251 L39.5585662,251 C39.4192608,251 39.2987059,251.050846 39.1969014,251.152707 C39.095097,251.254567 39.0441948,251.375066 39.0441948,251.514428 L39.0441948,254.40814 C37.3614938,254.729544 35.9950171,255.447637 34.9447085,256.562249 C33.8945125,257.676918 33.3692174,258.973516 33.3692174,260.452665 C33.3692174,260.892034 33.4149393,261.310007 33.5060453,261.706357 C33.5970386,262.103045 33.7096541,262.459417 33.8436666,262.775529 C33.9775664,263.091866 34.1678867,263.402572 34.4143457,263.708098 C34.6608048,264.013511 34.8939752,264.276131 35.1136318,264.495731 C35.3334009,264.715275 35.62012,264.943096 35.9736765,265.1788 C36.3274581,265.41473 36.6302249,265.605106 36.8821458,265.749705 C37.134123,265.893852 37.4689853,266.060523 37.8868451,266.247634 C38.3048176,266.435308 38.6344996,266.577147 38.8756657,266.673827 C39.1168318,266.77017 39.4463448,266.904295 39.8644862,267.075414 C40.443161,267.300477 40.8719446,267.474693 41.1505554,267.598007 C41.4293914,267.721321 41.7829478,267.892778 42.2119003,268.112491 C42.6404587,268.331978 42.9538114,268.532997 43.1522399,268.715265 C43.3504995,268.897533 43.5299523,269.122596 43.6908236,269.390452 C43.8516949,269.658308 43.9322713,269.942324 43.9322713,270.242557 C43.9322713,271.089257 43.602702,271.742877 42.9433944,272.203362 C42.2843684,272.664354 41.5204974,272.894765 40.6525133,272.894765 C40.2563319,272.894765 39.8594748,272.85214 39.4630682,272.76644 C38.069789,272.487435 36.7676721,271.817597 35.5566049,270.756647 L35.5244532,270.724495 C35.4279417,270.606924 35.2992784,270.558612 35.1386887,270.580178 C34.9671753,270.601575 34.8438613,270.665935 34.7689157,270.773314 L33.1130171,272.943415 C32.9522022,273.157722 32.9630696,273.377379 33.1452252,273.602441 C33.1988865,273.666801 33.2926389,273.763481 33.4265387,273.891863 C33.5607764,274.020751 33.8099945,274.221376 34.1741931,274.4952 C34.5385043,274.768631 34.9350799,275.025507 35.3638634,275.266954 C35.7925907,275.508008 36.336411,275.746359 36.9956623,275.982232 C37.6549135,276.217711 38.3379829,276.383762 39.0453773,276.480161 L39.0453773,279.293466 C39.0453773,279.432997 39.0963358,279.553439 39.1980839,279.655356 C39.2999446,279.757329 39.4204432,279.808006 39.5597486,279.808006 L41.7301875,279.808006 C41.8804729,279.808006 42.0037869,279.759863 42.1001294,279.66352 C42.196472,279.567178 42.2444462,279.443864 42.2444462,279.293522 L42.2444462,276.480218 C43.9488257,276.201607 45.3340529,275.470113 46.4002966,274.285792 C47.4666529,273.101471 48,271.689441 48,270.049815 C47.9994369,269.514047 47.9298968,269.010318 47.7892401,268.538459 Z" id="Shape"></path>
                        </g>
                    </g>
                </g>
            </g>
        </g>
    </g>
</svg>