<?xml version="1.0" encoding="utf-8"?>
<!-- Generator: Adobe Illustrator 21.0.0, SVG Export Plug-In . SVG Version: 6.00 Build 0)  -->
<svg version="1.1" id="Capa_1" xmlns="http://www.w3.org/2000/svg" width="30" height="50" xmlns:xlink="http://www.w3.org/1999/xlink" x="0px" y="0px"
	 viewBox="0 0 430.1 430.1" style="enable-background:new 0 0 430.1 430.1;" xml:space="preserve">
<style type="text/css">
	.st0{fill:#40A247;}
</style>
<path class="st0" d="M202.8,430.1L327.4,198H239c-5.2,3.2-18.2,10.3-36.2,10.3c-18,0-31-7.1-36.2-10.3c-29.5,0-59,0-88.5,0
	L202.8,430.1z"/>
<path class="st0" d="M202.8,1.7c-76.1,0-137.7,61.7-137.7,137.7s61.7,137.7,137.7,137.7s137.7-61.7,137.7-137.7S278.8,1.7,202.8,1.7
	z M202.8,208.2c-38,0-68.9-30.8-68.9-68.9c0-38,30.8-68.9,68.9-68.9s68.9,30.8,68.9,68.9C271.6,177.4,240.8,208.2,202.8,208.2z"/>
<path class="st0" d="M205,182.8"/>
</svg>
