<?xml version="1.0" encoding="UTF-8"?>
<svg width="20px" height="20px" viewBox="0 0 20 20" version="1.1" xmlns="http://www.w3.org/2000/svg" xmlns:xlink="http://www.w3.org/1999/xlink">
    <!-- Generator: sketchtool 51.3 (57544) - http://www.bohemiancoding.com/sketch -->
    <title>9A23F66E-68E3-4F67-80E3-DE0DD3DE532A</title>
    <desc>Created with sketchtool.</desc>
    <defs></defs>
    <g id="Page-1" stroke="none" stroke-width="1" fill="none" fill-rule="evenodd">
        <g id="Home" transform="translate(-1700.000000, -135.000000)" fill="#40A247" fill-rule="nonzero">
            <g id="меню" transform="translate(0.000000, 119.000000)">
                <g id="иконка-поиска" transform="translate(1454.000000, 16.000000)">
                    <path d="M265.827013,18.9800443 L260.965624,14.1197339 C262.269683,12.6208426 263.059215,10.6651885 263.059215,8.52771619 C263.059215,3.82261641 259.231315,0 254.529607,0 C249.823464,0 246,3.827051 246,8.52771619 C246,13.2283814 249.8279,17.0554324 254.529607,17.0554324 C256.667554,17.0554324 258.623642,16.2660754 260.122865,14.962306 L264.984254,19.8226164 C265.099579,19.9379157 265.254824,20 265.405633,20 C265.556443,20 265.711688,19.9423503 265.827013,19.8226164 C266.057662,19.5920177 266.057662,19.210643 265.827013,18.9800443 Z M247,8.49773208 C247,4.36105231 250.366606,1 254.5,1 C258.637931,1 262,4.36558815 262,8.49773208 C262,12.629876 258.637931,16 254.5,16 C250.366606,16 247,12.6344119 247,8.49773208 Z" id="Shape"></path>
                </g>
            </g>
        </g>
    </g>
</svg>