<svg xmlns="http://www.w3.org/2000/svg" width="13" height="12" viewBox="0 0 13 12">
    <path fill="#FFF" fill-rule="nonzero" d="M7 .529v2.155c0 .292.256.529.571.529 1.125 0 1.737 1.069 1.822 3.18H7.571c-.315 0-.571.237-.571.529v4.55c0 .291.256.528.571.528h4.858c.316 0 .571-.237.571-.529v-4.55c0-1.011-.11-1.94-.327-2.76-.222-.84-.563-1.575-1.013-2.183A4.834 4.834 0 0 0 9.937.518C9.252.176 8.456 0 7.57 0 7.256 0 7 .237 7 .529zM.571 3.213c-.315 0-.571-.237-.571-.53V.53C0 .237.256 0 .571 0c.885 0 1.681.175 2.365.519.68.342 1.26.833 1.724 1.459.45.608.791 1.343 1.013 2.184.217.82.327 1.748.327 2.76v4.55c0 .291-.256.528-.571.528H.571c-.315 0-.57-.237-.57-.529v-4.55c0-.291.255-.528.57-.528h1.796c-.083-2.111-.686-3.18-1.796-3.18z"/>
</svg>
