<svg xmlns="http://www.w3.org/2000/svg" width="198" height="184" viewBox="0 0 198 184">
    <path fill="#FFF" fill-rule="nonzero" d="M85.25 8.111V41.15a8.112 8.112 0 0 1-8.112 8.112c-15.988 0-24.684 16.396-25.89 48.758h25.89a8.114 8.114 0 0 1 8.113 8.113v69.758a8.112 8.112 0 0 1-8.113 8.11H8.112A8.11 8.11 0 0 1 0 175.89v-69.758c0-15.514 1.562-29.75 4.641-42.318 3.159-12.887 8.007-24.155 14.405-33.49 6.584-9.596 14.82-17.125 24.481-22.37C53.253 2.677 64.563 0 77.14 0c4.478 0 8.11 3.63 8.11 8.111zm104.636 41.15c4.479 0 8.114-3.634 8.114-8.111V8.112A8.113 8.113 0 0 0 189.886 0c-12.572 0-23.884 2.677-33.606 7.953-9.663 5.245-17.903 12.775-24.489 22.37-6.396 9.336-11.244 20.604-14.403 33.494-3.077 12.572-4.64 26.808-4.64 42.314v69.758c0 4.479 3.634 8.11 8.114 8.11h69.024a8.112 8.112 0 0 0 8.11-8.11v-69.758a8.113 8.113 0 0 0-8.11-8.113h-25.52c1.187-32.361 9.756-48.758 25.52-48.758z" opacity=".3"/>
</svg>
